{"title":"TP4Y - Million Bucks (2016 Pop)","uid":14073488,"size":87131742,"categoryP":"video","categoryS":"music_videos","magnet":"?xt=urn:btih:592895bc412b928d02c8f47df5a96ed3368d6442&amp;dn=TP4Y+-+Million+Bucks+%282016+Pop%29&amp;tr=udp%3A%2F%2Ftracker.leechers-paradise.org%3A6969&amp;tr=udp%3A%2F%2Fzer0day.ch%3A1337&amp;tr=udp%3A%2F%2Fopen.demonii.com%3A1337&amp;tr=udp%3A%2F%2Ftracker.coppersurfer.tk%3A6969&amp;tr=udp%3A%2F%2Fexodus.desync.com%3A6969","seeders":0,"leechers":0,"uploader":"MeRaDil","files":1,"time":1459193346,"description":"http://gifyu.com/images/TP4Y.png\r\n\r\n                                    MEDIA INFO\r\nTP4Y - Million Bucks\r\nFormat                                   : MPEG-4\r\nFormat profile                           : Base Media\r\nCodec ID                                 : isom (isom/iso2/avc1/mp41)\r\nFile size                                : 83.1 MiB\r\nDuration                                 : 2mn 58s\r\nOverall bit rate                         : 3 902 Kbps\r\nMusicVid name                            : Million Bucks\r\nPerformer                                : TP4Y\r\nPublisher                                : MeRaDil\r\nGenre                                    : Pop\r\nContentType                              : Music Video\r\nRecorded date                            : 2016\r\nWriting application                      : Lavf51.12.1/MeRaDil\r\nCover                                    : Yes\r\nRating                                   : ***\r\nRelease time                             : Nederland . maart 18 . 2016\r\n \nhttp://gifyu.com/images/TP4Y-1.png\r\n\r\nVideo\r\nID                                       : 1\r\nFormat                                   : AVC\r\nFormat/Info                              : Advanced Video Codec\r\nFormat profile                           :   \r\nFormat settings, CABAC                   : Yes\r\nFormat settings, ReFrames                : 2 frames\r\nCodec ID                                 : avc1\r\nCodec ID/Info                            : Advanced Video Coding\r\nDuration                                 : 2mn 58s\r\nBit rate                                 : 3 624 Kbps\r\nWidth                                    : 1 920 pixels\r\nHeight                                   : 1 080 pixels\r\nDisplay aspect ratio                     : 16:9\r\nFrame rate mode                          : Constant\r\nFrame rate                               : 25.000 fps\r\nColor space                              : YUV\r\nChroma subsampling                       : 4:2:0\r\nBit depth                                : 8 bits\r\nScan type                                : Progressive\r\nBits/(Pixel*Frame)                       : 0.070\r\nStream size                              : 77.1 MiB (93%)\r\nColor range                              : Limited\r\n\r\nAudio\r\nID                                       : 2\r\nFormat                                   : AAC\r\nFormat/Info                              : Advanced Audio Codec\r\nFormat profile                           : LC\r\nCodec ID                                 : 40\r\nDuration                                 : 2mn 58s\r\nBit rate mode                            : Constant\r\nBit rate                                 : 256 Kbps\r\nChannel(s)                               : 2 channels\r\nChannel positions                        : Front: L R\r\nSampling rate                            : 44.1 KHz\r\nFrame rate                               : 43.066 fps (1024 spf)\r\nCompression mode                         : Lossy\r\nStream size                              : 5.45 MiB (7%)","torrent":{"xt":"urn:btih:592895bc412b928d02c8f47df5a96ed3368d6442","amp;dn":"TP4Y+-+Million+Bucks+%282016+Pop%29","amp;tr":["udp%3A%2F%2Ftracker.leechers-paradise.org%3A6969","udp%3A%2F%2Fzer0day.ch%3A1337","udp%3A%2F%2Fopen.demonii.com%3A1337","udp%3A%2F%2Ftracker.coppersurfer.tk%3A6969","udp%3A%2F%2Fexodus.desync.com%3A6969"],"infoHash":"592895bc412b928d02c8f47df5a96ed3368d6442","infoHashBuffer":{"type":"Buffer","data":[89,40,149,188,65,43,146,141,2,200,244,125,245,169,110,211,54,141,100,66]},"announce":[],"urlList":[]}}